# xmcd
# 
# Track frame offsets:
#     150
#     13425
#     24537
#     39330
# 
# Disc length: 716
# 
# Revision: 0
# Processed by: cddbd v1.5.2PL0 Copyright (c) Steve Scherf et al.
# Submitted via: fre:ac v1.0.17
# 
DISCID=2a02ca04
DTITLE=Sylvie Vartan - Soleil Bleu [CD2]
DYEAR=2010
DGENRE=Chanson
TTITLE0=Sur un fil
TTITLE1=Quand tu es là
TTITLE2=La Maritza
TTITLE3=Par amour par pitié
EXTD=
EXTT0=
EXTT1=
EXTT2=
EXTT3=
PLAYORDER=
